<svg aria-hidden="true" style="position: absolute; width: 0; height: 0; overflow: hidden;" version="1.1" xmlns="http://www.w3.org/2000/svg" xmlns:xlink="http://www.w3.org/1999/xlink">
<defs>
<symbol id="icon-arrow-left" viewBox="0 0 26 32">
<path stroke-linejoin="round" stroke-linecap="round" stroke-miterlimit="4" stroke-width="0.96" d="M15.573 10.56l-5.333 5.333 5.333 5.333"></path>
</symbol>
<symbol id="icon-arrow-right" viewBox="0 0 26 32">
<path stroke-linejoin="round" stroke-linecap="round" stroke-miterlimit="4" stroke-width="0.96" d="M10.24 21.334l5.333-5.333-5.333-5.333"></path>
</symbol>
<symbol id="icon-facebook" viewBox="0 0 32 32">
<path stroke-linejoin="round" stroke-linecap="round" stroke-miterlimit="4" stroke-width="2.6667" d="M24 2.667h-4c-1.768 0-3.464 0.702-4.714 1.953s-1.953 2.946-1.953 4.714v4h-4v5.333h4v10.667h5.333v-10.667h4l1.333-5.333h-5.333v-4c0-0.354 0.141-0.693 0.391-0.943s0.589-0.391 0.943-0.391h4v-5.333z"></path>
</symbol>
<symbol id="icon-instagram" viewBox="0 0 32 32">
<path stroke-linejoin="round" stroke-linecap="round" stroke-miterlimit="4" stroke-width="2.6667" d="M22.667 2.667h-13.333c-3.682 0-6.667 2.985-6.667 6.667v13.333c0 3.682 2.985 6.667 6.667 6.667h13.333c3.682 0 6.667-2.985 6.667-6.667v-13.333c0-3.682-2.985-6.667-6.667-6.667z"></path>
<path stroke-linejoin="round" stroke-linecap="round" stroke-miterlimit="4" stroke-width="2.6667" d="M21.333 15.16c0.165 1.11-0.025 2.243-0.542 3.239s-1.334 1.803-2.336 2.308c-1.002 0.504-2.138 0.68-3.245 0.502s-2.131-0.701-2.924-1.494c-0.793-0.793-1.316-1.816-1.494-2.924s-0.003-2.243 0.502-3.245c0.504-1.002 1.312-1.82 2.307-2.336s2.129-0.706 3.239-0.542c1.132 0.168 2.18 0.695 2.989 1.504s1.337 1.857 1.505 2.989z"></path>
<path stroke-linejoin="round" stroke-linecap="round" stroke-miterlimit="4" stroke-width="2.6667" d="M23.333 8.667h0.013"></path>
</symbol>
<symbol id="icon-logo" viewBox="0 0 28 32">
<path d="M12.705 3.9c-4.796 0.521-8.988 3.381-11.159 7.611-0.784 1.528-1.221 2.924-1.458 4.661-0.116 0.853-0.117 2.673-0.002 3.504 0.402 2.889 1.476 5.279 3.365 7.485 0.534 0.624 1.668 1.744 1.81 1.789 0.058 0.018 0.346 0.209 0.64 0.424 1.818 1.33 4.042 2.203 6.467 2.538 0.753 0.104 2.711 0.118 3.459 0.025 3.995-0.498 7.43-2.483 9.814-5.672 0.896-1.199 1.72-2.828 2.141-4.234 1.347-4.5 0.415-9.287-2.521-12.939-0.46-0.572-1.632-1.727-2.222-2.189-1.613-1.264-3.378-2.137-5.311-2.626-1.221-0.309-1.881-0.389-3.343-0.406-0.7-0.008-1.457 0.005-1.682 0.030zM16.14 4.229c1.151 0.17 2.383 0.505 3.374 0.917 0.191 0.079 0.336 0.163 0.322 0.186-0.027 0.044 0.115 0.113 0.325 0.158 0.071 0.015 0.158 0.057 0.195 0.093 0.090 0.090 0.304 0.195 0.59 0.29 0.258 0.086 1.6 0.943 1.519 0.97-0.027 0.009-0.092-0.007-0.144-0.035s-0.147-0.051-0.209-0.051c-0.062 0-0.231-0.030-0.376-0.066-0.403-0.102-0.991-0.13-1.057-0.051-0.044 0.053-0.006 0.072 0.202 0.101l0.256 0.036-0.279 0.031c-0.177 0.020-0.3 0.061-0.338 0.112-0.067 0.090-0.288 0.147-0.767 0.196-0.2 0.020-0.367 0.067-0.432 0.119l-0.106 0.085 0.11 0.148c0.061 0.081 0.097 0.169 0.081 0.195s0.006 0.047 0.049 0.047c0.043 0 0.064 0.022 0.047 0.049-0.085 0.136 0.591 0.246 0.867 0.141 0.118-0.044 0.145-0.030 0.327 0.175 0.109 0.123 0.236 0.284 0.282 0.358 0.086 0.139 0.287 0.186 0.351 0.083 0.018-0.028 0.084-0.039 0.147-0.023 0.138 0.034 0.355-0.013 0.355-0.077 0-0.025-0.035-0.081-0.078-0.124-0.072-0.072-0.066-0.082 0.084-0.134 0.191-0.066 0.188-0.142-0.009-0.298-0.182-0.143-0.183-0.247-0.003-0.247 0.275 0 0.438-0.056 0.438-0.149 0-0.114 0.069-0.111 0.336 0.015l0.216 0.102-0.28 0.046c-0.255 0.042-0.277 0.055-0.248 0.147 0.018 0.056 0.032 0.14 0.031 0.188-0.001 0.059 0.079 0.124 0.248 0.202 0.137 0.063 0.282 0.118 0.322 0.121s0.009 0.020-0.068 0.036c-0.201 0.043-0.204 0.131-0.006 0.196 0.094 0.031 0.171 0.076 0.171 0.1 0 0.062-0.034 0.055-0.169-0.033-0.151-0.098-0.252-0.059-0.271 0.106-0.019 0.159-0.229 0.25-0.393 0.169-0.057-0.028-0.273-0.060-0.481-0.071-0.233-0.013-0.392-0.043-0.415-0.081-0.026-0.041-0.098-0.051-0.227-0.030s-0.218 0.008-0.281-0.039c-0.090-0.067-0.090-0.068 0.007-0.044 0.136 0.034 0.241-0.090 0.143-0.17-0.039-0.032-0.098-0.041-0.131-0.021s-0.115 0.042-0.182 0.047c-0.121 0.011-0.121 0.010-0.014-0.040 0.123-0.058 0.143-0.131 0.036-0.131-0.041 0-0.072-0.043-0.072-0.098 0-0.087-0.020-0.094-0.18-0.065-0.099 0.018-0.196 0.041-0.216 0.053-0.064 0.037-0.038 0.164 0.059 0.287 0.052 0.066 0.084 0.139 0.069 0.162s-0.155 0.042-0.313 0.042c-0.335 0-0.618 0.102-0.654 0.236-0.026 0.099-0.071 0.12-0.363 0.172-0.099 0.018-0.18 0.059-0.18 0.094 0 0.084-0.351 0.139-0.474 0.074-0.134-0.071-0.151-0.066-0.151 0.051 0 0.094-0.018 0.099-0.221 0.072-0.255-0.035-0.464 0.004-0.439 0.082 0.009 0.030 0.134 0.093 0.276 0.14 0.286 0.095 0.628 0.406 0.658 0.597 0.028 0.175-0.146 0.295-0.389 0.269-0.109-0.012-0.418-0.045-0.686-0.075-0.388-0.043-0.523-0.041-0.661 0.009-0.172 0.062-0.222 0.15-0.119 0.213 0.065 0.040 0.017 0.461-0.068 0.599-0.048 0.078-0.044 0.102 0.026 0.141 0.058 0.033 0.084 0.106 0.084 0.236v0.188h0.255c0.217 0 0.275 0.020 0.385 0.134 0.206 0.213 0.12 0.368-0.399 0.72-0.435 0.296-0.53 0.424-0.53 0.716 0 0.163-0.247 0.403-0.564 0.549-0.325 0.149-0.463 0.308-0.711 0.817-0.116 0.239-0.245 0.461-0.285 0.495-0.103 0.085-0.092 0.369 0.031 0.783 0.094 0.317 0.098 0.373 0.040 0.577-0.035 0.124-0.117 0.289-0.183 0.366l-0.119 0.14 0.127 0.248c0.070 0.137 0.127 0.301 0.127 0.366 0 0.085 0.117 0.23 0.421 0.524 0.232 0.224 0.479 0.507 0.55 0.631 0.097 0.17 0.191 0.256 0.383 0.352 0.14 0.070 0.348 0.221 0.461 0.336 0.236 0.238 0.385 0.262 0.822 0.133 0.3-0.088 0.554-0.097 0.741-0.025 0.183 0.070 0.322 0.066 0.413-0.015 0.107-0.094 0.868-0.353 1.146-0.389 0.275-0.036 0.333 0.011 0.356 0.29l0.016 0.19 0.384-0.016c0.335-0.014 0.401-0.003 0.515 0.086 0.125 0.098 0.13 0.117 0.101 0.398-0.018 0.175-0.067 0.342-0.119 0.409-0.177 0.227-0.079 0.551 0.294 0.971 0.206 0.231 0.301 0.511 0.473 1.39 0.062 0.315 0.021 0.453-0.27 0.905-0.271 0.422-0.263 0.884 0.024 1.347 0.164 0.265 0.174 0.302 0.178 0.717 0.004 0.38 0.019 0.455 0.115 0.572 0.213 0.261 0.319 0.547 0.309 0.828l-0.010 0.264 0.173 0.012c0.125 0.008 0.237-0.029 0.401-0.133 0.125-0.080 0.273-0.145 0.329-0.145s0.248-0.073 0.428-0.163c0.257-0.128 0.417-0.261 0.746-0.615 0.441-0.475 0.637-0.754 0.601-0.854-0.035-0.098 0.053-0.221 0.248-0.343 0.209-0.131 0.326-0.432 0.279-0.72-0.024-0.144 0-0.205 0.162-0.421 0.105-0.139 0.284-0.322 0.399-0.407 0.247-0.183 0.401-0.44 0.406-0.672 0.002-0.092 0.030-0.3 0.062-0.463 0.046-0.229 0.046-0.325 0.003-0.42-0.031-0.068-0.057-0.294-0.057-0.504 0-0.325 0.020-0.42 0.139-0.653 0.076-0.15 0.185-0.314 0.24-0.364s0.125-0.178 0.154-0.284c0.029-0.106 0.139-0.29 0.245-0.41s0.245-0.319 0.309-0.444c0.186-0.363 0.394-1.033 0.43-1.382 0.037-0.357 0.005-0.392-0.207-0.226-0.067 0.052-0.172 0.095-0.233 0.095s-0.124 0.021-0.14 0.048c-0.049 0.079-0.102 0.055-0.16-0.074-0.073-0.16-0.071-0.314 0.004-0.304 0.127 0.016 0.175-0.007 0.205-0.101 0.021-0.067 0.058-0.089 0.117-0.070 0.058 0.018 0.112-0.012 0.165-0.092 0.043-0.066 0.145-0.153 0.226-0.195 0.092-0.047 0.138-0.101 0.121-0.143-0.030-0.079 0.139-0.185 0.218-0.136 0.091 0.056 0.018 2.16-0.103 2.947-0.153 0.995-0.707 3.033-0.718 2.639-0.005-0.192-0.060-0.159-0.196 0.117-0.066 0.135-0.214 0.348-0.328 0.474-0.176 0.195-0.214 0.273-0.249 0.518-0.023 0.159-0.096 0.383-0.164 0.497-0.088 0.15-0.128 0.296-0.142 0.522-0.018 0.299-0.037 0.34-0.381 0.851-1.393 2.066-3.257 3.691-5.487 4.78-1.298 0.634-2.436 1.001-3.843 1.239-1.749 0.295-3.579 0.245-5.344-0.147-1.86-0.413-3.734-1.274-5.303-2.436-0.429-0.318-0.529-0.457-0.387-0.537 0.069-0.039 0.058-0.065-0.089-0.194-0.094-0.084-0.116-0.116-0.049-0.074 0.182 0.115 0.29 0.097 0.29-0.049 0-0.101 0.016-0.117 0.084-0.087 0.153 0.068 0.54 0.080 0.614 0.019 0.093-0.076 0.090-0.257-0.004-0.335-0.041-0.034-0.095-0.099-0.12-0.145-0.043-0.079-0.032-0.079 0.2 0.002 0.3 0.105 0.416 0.080 0.517-0.112 0.043-0.081 0.223-0.294 0.4-0.473l0.322-0.325-0.046-0.241c-0.025-0.133-0.046-0.247-0.046-0.254s0.065-0.035 0.144-0.063c0.079-0.027 0.144-0.071 0.144-0.096s0.085-0.060 0.189-0.078c0.104-0.017 0.215-0.062 0.246-0.1 0.036-0.043 0.151-0.068 0.318-0.068 0.287 0 0.447-0.061 0.447-0.169 0-0.039 0.065-0.159 0.144-0.268s0.145-0.242 0.146-0.298c0.001-0.055 0.033-0.154 0.070-0.219 0.079-0.137 0.096-0.695 0.026-0.877-0.040-0.105-0.027-0.134 0.102-0.225 0.204-0.144 0.699-0.818 0.759-1.033 0.072-0.256 0.061-0.545-0.023-0.665-0.043-0.061-0.147-0.116-0.252-0.133-0.259-0.042-0.368-0.094-0.573-0.276-0.218-0.194-0.348-0.24-0.652-0.229-0.141 0.005-0.274-0.021-0.346-0.069-0.080-0.052-0.165-0.066-0.264-0.045-0.123 0.027-0.146 0.017-0.146-0.059 0-0.117-0.478-0.364-0.704-0.364-0.102 0-0.16-0.023-0.16-0.063 0-0.035-0.038-0.075-0.084-0.090s-0.131-0.049-0.189-0.076c-0.159-0.076-0.255-0.015-0.255 0.162 0 0.118-0.013 0.141-0.056 0.098-0.066-0.065-0.011-0.214 0.182-0.494l0.119-0.173-0.123-0.179c-0.067-0.099-0.123-0.207-0.123-0.241 0-0.093-0.234-0.349-0.393-0.431-0.078-0.040-0.316-0.103-0.529-0.14-0.374-0.065-0.396-0.077-0.645-0.331-0.141-0.145-0.298-0.263-0.349-0.263-0.056 0-0.103-0.043-0.119-0.108s-0.089-0.131-0.18-0.165c-0.13-0.049-0.144-0.068-0.092-0.13 0.053-0.063 0.039-0.073-0.102-0.073-0.090 0-0.214 0.035-0.277 0.079-0.090 0.062-0.132 0.067-0.202 0.024-0.049-0.030-0.155-0.055-0.235-0.055-0.086 0-0.158-0.030-0.174-0.071-0.015-0.039-0.058-0.072-0.096-0.072s-0.081-0.032-0.096-0.071c-0.015-0.039-0.069-0.072-0.119-0.072-0.102 0-0.124 0.077-0.031 0.107 0.033 0.011 0 0.031-0.072 0.045-0.102 0.019-0.121 0.011-0.083-0.034 0.051-0.061 0.017-0.214-0.048-0.214-0.020 0-0.065 0.033-0.098 0.073s-0.166 0.118-0.294 0.173c-0.142 0.060-0.233 0.13-0.233 0.177-0 0.043-0.042 0.141-0.094 0.218l-0.093 0.14-0.049-0.129c-0.053-0.139-0.225-0.176-0.331-0.071-0.045 0.045-0.090 0.021-0.203-0.107l-0.145-0.165 0.029-0.48c0.034-0.562 0.002-0.622-0.306-0.571l-0.187 0.031 0.036-0.206c0.020-0.113 0.071-0.33 0.113-0.482 0.101-0.362 0.1-0.367-0.061-0.367s-0.206 0.049-0.292 0.318c-0.065 0.203-0.243 0.326-0.242 0.166 0-0.135 0.139-1.013 0.223-1.414 0.087-0.417 0.146-0.535 0.226-0.455s0.113 0.059 0.143-0.087c0.030-0.149 0.222-0.227 0.321-0.13 0.039 0.038 0.071 0.030 0.117-0.032 0.057-0.076 0.066-0.077 0.093-0.008 0.016 0.042 0.030 0.161 0.030 0.264 0 0.265 0.104 0.573 0.189 0.557 0.11-0.021 0.147-0.263 0.099-0.64-0.066-0.516-0.034-0.605 0.368-1.011 0.193-0.195 0.34-0.371 0.328-0.392s-0.001-0.051 0.026-0.067 0.049-0.077 0.049-0.134c0-0.105 0.133-0.39 0.325-0.697 0.056-0.090 0.091-0.181 0.079-0.201s0.031-0.051 0.099-0.068c0.067-0.017 0.122-0.051 0.122-0.076s0.097-0.088 0.216-0.14c0.217-0.095 0.267-0.159 0.156-0.199-0.106-0.038 0.026-0.191 0.316-0.362 0.15-0.089 0.273-0.191 0.273-0.226s0.029-0.065 0.064-0.065c0.043 0 0.057 0.045 0.043 0.143-0.017 0.118-0.004 0.143 0.075 0.143 0.053 0 0.125-0.036 0.162-0.079 0.075-0.090 0.694-0.493 0.757-0.493 0.076 0 0.152-0.13 0.121-0.208-0.045-0.115-0.158-0.094-0.221 0.042-0.057 0.124-0.116 0.153-0.143 0.072-0.009-0.026-0.108-0.051-0.22-0.055-0.213-0.008-0.262-0.076-0.132-0.183 0.040-0.033 0.072-0.092 0.072-0.131 0-0.056-0.041-0.066-0.192-0.046-0.106 0.014-0.192 0.007-0.192-0.016 0-0.080 0.274-0.182 0.7-0.259 0.294-0.053 0.489-0.119 0.621-0.208 0.106-0.072 0.253-0.156 0.328-0.188 0.135-0.058 0.135-0.057-0.046 0.169-0.1 0.125-0.204 0.249-0.232 0.276-0.076 0.074-0.18 0.268-0.156 0.292 0.012 0.012 0.155-0 0.318-0.026s0.328-0.035 0.367-0.021c0.039 0.015 0.1 0.002 0.137-0.028 0.051-0.042 0.085-0.037 0.145 0.023 0.043 0.043 0.111 0.065 0.15 0.050 0.106-0.040 0.144-0.178 0.066-0.239-0.037-0.029-0.070-0.079-0.073-0.112-0.016-0.201-0.021-0.208-0.116-0.178-0.053 0.017-0.163 0.016-0.244-0.001-0.142-0.031-0.144-0.034-0.060-0.126 0.108-0.118 0.13-0.416 0.039-0.536-0.049-0.065-0.146-0.098-0.334-0.113-0.146-0.012-0.265-0.041-0.265-0.064s-0.043-0.042-0.095-0.042c-0.067 0-0.086-0.022-0.065-0.077 0.018-0.047-0.002-0.095-0.050-0.122-0.044-0.024-0.079-0.072-0.079-0.105s-0.053-0.089-0.117-0.123c-0.109-0.058-0.136-0.046-0.395 0.184-0.304 0.268-0.433 0.296-0.41 0.087 0.013-0.124 0.005-0.129-0.212-0.129-0.222 0-0.224-0.001-0.138-0.095 0.050-0.055 0.15-0.096 0.236-0.097 0.243-0.003 0.631-0.111 0.72-0.201 0.046-0.046 0.112-0.083 0.146-0.083 0.091 0 0.177-0.119 0.145-0.201-0.018-0.045-0.069-0.063-0.145-0.048-0.068 0.013-0.118-0-0.118-0.031s0.089-0.053 0.215-0.053c0.164 0 0.266-0.036 0.432-0.152 0.12-0.084 0.218-0.17 0.218-0.191s-0.081-0.027-0.18-0.012c-0.099 0.015-0.252 0.035-0.34 0.044-0.153 0.017-0.157 0.013-0.093-0.086 0.088-0.136 1.059-0.865 1.321-0.991 0.25-0.121 0.476-0.074 0.457 0.094-0.008 0.068 0.015 0.102 0.070 0.102 0.063 0 0.068 0.013 0.023 0.057-0.032 0.031-0.058 0.088-0.058 0.125 0 0.067 0.112 0.063 0.36-0.015 0.053-0.017 0.019 0.013-0.075 0.065s-0.197 0.126-0.229 0.164c-0.069 0.083-0.024 0.224 0.071 0.224 0.038 0 0.081 0.032 0.096 0.071s0.046 0.072 0.068 0.072c0.022 0 0.093 0.052 0.157 0.116 0.157 0.155 0.465 0.235 0.681 0.176 0.101-0.028 0.178-0.028 0.194-0.002 0.015 0.024 0.133 0.044 0.263 0.044 0.197 0 0.26-0.023 0.382-0.141 0.080-0.078 0.146-0.174 0.146-0.214s0.085-0.115 0.189-0.168c0.122-0.062 0.194-0.134 0.204-0.204 0.017-0.115 0.111-0.149 0.832-0.3 0.185-0.039 0.385-0.081 0.444-0.095 0.074-0.017 0.108-0.060 0.108-0.137 0-0.088 0.044-0.129 0.206-0.19 0.113-0.043 0.27-0.079 0.348-0.080 0.347-0.004 1.561-0.237 1.763-0.338 0.046-0.023 0.116-0.042 0.156-0.042 0.103 0 0.090-0.083-0.022-0.142-0.134-0.071-0.071-0.183 0.123-0.22 0.090-0.017 0.164-0.050 0.164-0.073s0.053-0.042 0.117-0.042 0.131-0.021 0.147-0.048c0.016-0.026 0.109-0.048 0.207-0.048 0.132-0.001 0.159-0.013 0.105-0.047-0.095-0.061-0.288-0.061-0.288 0 0 0.026-0.022 0.048-0.048 0.048s-0.048-0.030-0.048-0.068c0-0.037-0.027-0.078-0.060-0.092s0.031-0.026 0.141-0.028c0.232-0.004 0.313-0.080 0.15-0.142-0.109-0.041-0.108-0.043 0.033-0.072 0.079-0.017 0.209-0.052 0.288-0.078s0.317-0.061 0.528-0.077c0.211-0.016 0.417-0.046 0.456-0.066 0.14-0.074-0.168-0.099-1.020-0.084-0.715 0.013-0.836 0.005-0.79-0.051s-0.115-0.063-1.061-0.045c-0.614 0.012-1.116 0.017-1.116 0.012 0-0.020 1.059-0.169 1.489-0.209 0.732-0.069 2.373-0.021 3.147 0.093zM11.419 4.404c0.033-0.013 0.006-0.024-0.060-0.024s-0.093 0.011-0.060 0.024c0.033 0.013 0.087 0.013 0.12 0zM13.845 4.735c-0.016 0.016-0.057 0.018-0.092 0.004-0.038-0.015-0.027-0.027 0.029-0.029 0.051-0.002 0.079 0.009 0.063 0.025zM12.993 5.66c-0.094-0.060-0.227-0.060-0.264 0-0.018 0.029 0.043 0.047 0.153 0.047 0.136-0.001 0.164-0.013 0.111-0.047zM13.173 6.217c0.073-0.012 0.186-0.011 0.252 0.001 0.132 0.025 0.277 0.026 1.122 0.010 0.344-0.006 0.582 0.008 0.601 0.038 0.017 0.027 0.080 0.063 0.139 0.082 0.157 0.049 0.133 0.155-0.048 0.211-0.381 0.117-0.829 0.154-1.261 0.104-0.4-0.046-0.8-0.131-0.661-0.141 0.033-0.002 0.060-0.027 0.060-0.055 0-0.029-0.041-0.038-0.096-0.021-0.133 0.042-0.24-0.028-0.117-0.076 0.085-0.033 0.084-0.036-0.015-0.039-0.152-0.005-0.135-0.088 0.024-0.114zM7.704 6.44c-0.011 0.010-0.116 0.029-0.234 0.044-0.138 0.018-0.189 0.012-0.144-0.017 0.064-0.040 0.423-0.067 0.378-0.028zM16.789 7.579c-0-0.033 0.056-0.060 0.125-0.060 0.092 0 0.118 0.019 0.098 0.072-0.016 0.042-0.001 0.072 0.037 0.072 0.035 0 0.092-0.032 0.124-0.072 0.068-0.081 0.457-0.099 0.505-0.023 0.016 0.026-0.020 0.068-0.081 0.092-0.090 0.036-0.064 0.045 0.141 0.047 0.285 0.003 0.334 0.087 0.144 0.244l-0.108 0.089 0.13 0.002c0.080 0.001 0.15 0.038 0.182 0.097 0.028 0.053 0.122 0.125 0.208 0.16s0.193 0.12 0.237 0.187c0.044 0.067 0.146 0.136 0.226 0.153 0.16 0.035 0.206 0.195 0.070 0.247-0.061 0.023-0.064 0.037-0.012 0.070 0.136 0.087-0.073 0.125-0.554 0.102-0.268-0.013-0.584-0.001-0.703 0.027-0.267 0.062-0.355-0.004-0.148-0.11 0.15-0.077 0.162-0.183 0.017-0.158-0.132 0.023-0.122-0.101 0.011-0.134 0.090-0.023 0.112-0.046 0.075-0.083-0.087-0.086-0.058-0.127 0.090-0.127 0.078 0 0.155-0.021 0.171-0.048s-0.013-0.048-0.065-0.048c-0.052 0-0.108-0.027-0.123-0.060-0.022-0.048-0.034-0.048-0.056 0-0.015 0.033-0.062 0.060-0.104 0.060s-0.062-0.014-0.045-0.031-0.005-0.058-0.050-0.090c-0.070-0.051-0.072-0.070-0.015-0.139 0.060-0.072 0.054-0.076-0.062-0.048-0.109 0.027-0.129 0.017-0.129-0.069 0-0.055-0.023-0.101-0.051-0.101s-0.040-0.017-0.027-0.038c0.013-0.021-0.040-0.080-0.117-0.131s-0.141-0.12-0.141-0.153zM16.518 8.163c0.046-0.118 0.521-0.097 0.635 0.028 0.087 0.095 0.087 0.102 0.005 0.162-0.056 0.040-0.081 0.11-0.071 0.198 0.014 0.127 0.001 0.138-0.202 0.168-0.119 0.018-0.275 0.047-0.347 0.065-0.302 0.075-0.518-0.136-0.273-0.266 0.094-0.050 0.095-0.057 0.017-0.114-0.105-0.076-0.051-0.17 0.097-0.17 0.062 0 0.125-0.032 0.14-0.071zM22.009 8.361c0.055-0.055 0.112-0.035 0.112 0.040 0 0.039-0.032 0.072-0.072 0.072-0.075 0-0.095-0.056-0.040-0.111zM23.465 8.423c0.117 0.074 0.035 0.088-0.119 0.021-0.109-0.047-0.121-0.063-0.048-0.064 0.053-0.001 0.128 0.019 0.167 0.043zM3.336 9.405c0 0.080-0.16 0.311-0.298 0.432-0.114 0.1-0.162 0.185-0.169 0.303-0.012 0.177-0.162 0.368-0.249 0.315-0.077-0.047-0.065-0.122 0.019-0.122 0.040 0 0.072-0.021 0.072-0.048s-0.023-0.048-0.052-0.048c-0.051 0 0.307-0.537 0.5-0.751 0.091-0.101 0.176-0.14 0.176-0.081zM4.708 9.993c0.030-0.049 0.217-0.057 0.329-0.014 0.124 0.047 0.087 0.114-0.064 0.114-0.179 0-0.299-0.046-0.265-0.1zM21.629 10.523c0.046 0 0.118 0.059 0.159 0.131 0.067 0.117 0.147 0.174 0.381 0.271 0.040 0.016 0.115 0.056 0.168 0.088 0.314 0.19 0.362 0.242 0.39 0.413 0.017 0.104 0.092 0.246 0.181 0.343 0.084 0.091 0.156 0.215 0.161 0.276 0.019 0.256 0.398 0.464 0.398 0.219 0-0.085 0.020-0.11 0.072-0.090 0.129 0.049 0.148-0.131 0.024-0.231-0.062-0.050-0.141-0.146-0.177-0.213-0.057-0.11-0.056-0.116 0.010-0.062 0.061 0.050 0.085 0.046 0.139-0.028 0.056-0.076 0.083-0.080 0.191-0.032 0.069 0.031 0.125 0.088 0.125 0.125s0.027 0.078 0.060 0.090c0.046 0.017 0.047 0.036 0.004 0.081s-0.010 0.117 0.144 0.312c0.11 0.139 0.22 0.255 0.245 0.257s0.095 0.050 0.156 0.107c0.098 0.091 0.125 0.096 0.229 0.041 0.105-0.056 0.133-0.049 0.268 0.063 0.159 0.132 0.283 0.159 0.366 0.076 0.147-0.145 0.341 0.252 0.253 0.516-0.024 0.071-0.066 0.221-0.093 0.332-0.053 0.216-0.087 0.235-0.253 0.146-0.058-0.031-0.225-0.059-0.372-0.063-0.189-0.005-0.362-0.051-0.594-0.158-0.18-0.083-0.366-0.152-0.414-0.152s-0.129-0.057-0.18-0.127c-0.075-0.102-0.129-0.126-0.274-0.12-0.234 0.009-0.313 0.079-0.313 0.279 0 0.098-0.028 0.173-0.070 0.189-0.083 0.031-0.469-0.145-0.849-0.388-0.188-0.12-0.354-0.184-0.549-0.21-0.369-0.050-0.524-0.209-0.477-0.488 0.020-0.115 0.011-0.211-0.023-0.252-0.038-0.045-0.039-0.075-0.005-0.097 0.078-0.048 0.061-0.183-0.018-0.152-0.038 0.014-0.093-0.003-0.122-0.038-0.040-0.048-0.166-0.059-0.496-0.045-0.243 0.010-0.486 0.016-0.539 0.013-0.624-0.034-0.933-0.002-1.364 0.142-0.529 0.176-0.63 0.182-0.919 0.049l-0.216-0.1 0.168-0.063c0.093-0.034 0.273-0.064 0.402-0.066 0.191-0.003 0.266-0.031 0.408-0.156 0.284-0.248 0.361-0.364 0.294-0.444-0.084-0.1 0.183-0.357 0.372-0.357 0.192 0 0.323-0.104 0.29-0.23-0.035-0.132 0.112-0.181 0.304-0.103 0.155 0.064 0.352 0.039 0.595-0.075 0.142-0.067 0.177-0.067 0.331-0.003 0.095 0.039 0.212 0.137 0.261 0.216 0.1 0.163 0.345 0.343 0.579 0.423 0.334 0.116 0.856 0.677 0.629 0.677-0.028 0-0.038 0.021-0.021 0.048 0.056 0.090 0.201 0.047 0.258-0.077 0.041-0.089 0.043-0.142 0.005-0.186-0.075-0.089 0.023-0.135 0.148-0.069 0.056 0.030 0.111 0.044 0.122 0.033 0.056-0.055-0.058-0.178-0.272-0.294-0.131-0.070-0.237-0.148-0.237-0.173s-0.050-0.045-0.111-0.045c-0.134 0-0.223-0.067-0.368-0.277-0.060-0.087-0.161-0.178-0.224-0.201-0.066-0.025-0.114-0.082-0.114-0.136 0-0.127 0.096-0.148 0.201-0.044 0.048 0.047 0.125 0.087 0.171 0.087zM20.557 10.734c0.128-0.093 0.185-0.034 0.149 0.153-0.022 0.115-0.009 0.184 0.044 0.236 0.088 0.088 0.098 0.311 0.017 0.391-0.133 0.132-0.315 0.016-0.248-0.158 0.015-0.040 0.004-0.101-0.026-0.137-0.041-0.049-0.037-0.079 0.016-0.122 0.056-0.046 0.059-0.081 0.015-0.178-0.047-0.102-0.042-0.131 0.034-0.186zM24.693 10.886c0.065 0.042 0.107 0.094 0.094 0.115s0.044 0.095 0.127 0.164c0.116 0.097 0.182 0.119 0.287 0.096 0.115-0.025 0.17 0.003 0.365 0.188 0.126 0.12 0.245 0.218 0.264 0.218 0.063 0 0.288 0.329 0.258 0.377-0.045 0.072-0.421-0.057-0.631-0.216-0.166-0.125-0.219-0.138-0.614-0.146-0.394-0.008-0.443-0.020-0.555-0.132-0.106-0.105-0.115-0.136-0.064-0.217 0.033-0.052 0.059-0.129 0.059-0.171 0-0.082 0.191-0.347 0.254-0.351 0.021-0.001 0.091 0.032 0.156 0.074zM25.473 11.17c-0.011 0.011-0.094-0.006-0.185-0.038l-0.164-0.058 0.144-0.028c0.095-0.018 0.158-0.006 0.185 0.038 0.022 0.036 0.031 0.074 0.020 0.086zM19.272 11.268c0.057-0.057 0.159-0.031 0.159 0.041 0 0.039-0.031 0.072-0.069 0.072-0.080 0-0.134-0.068-0.090-0.113zM2.303 11.477c-0.017 0.027-0.048 0.038-0.070 0.024s-0.073 0.056-0.114 0.154l-0.075 0.178-0.002-0.203c-0.002-0.195 0.003-0.203 0.144-0.203 0.087 0 0.135 0.020 0.117 0.048zM26.914 12.314c-0.023 0.023-0.325-0.561-0.322-0.623 0.001-0.026 0.078 0.099 0.171 0.279s0.161 0.335 0.151 0.344zM21.353 11.852c0-0.038 0.068-0.046 0.223-0.025 0.123 0.017 0.261 0.030 0.307 0.030 0.065 0 0.085 0.039 0.085 0.167 0 0.192-0.052 0.206-0.255 0.068-0.079-0.054-0.193-0.118-0.252-0.142s-0.108-0.069-0.108-0.099zM27.262 13.138c0 0.014-0.054-0.048-0.12-0.137-0.069-0.092-0.119-0.224-0.118-0.307 0.002-0.127 0.017-0.11 0.12 0.137 0.065 0.155 0.118 0.294 0.118 0.307zM23.779 12.741c-0.141-0.064-0.141-0.066-0.024-0.069 0.163-0.004 0.336 0.045 0.336 0.096 0 0.061-0.146 0.048-0.312-0.028zM25.184 12.892c0.119-0.031 0.204-0.036 0.204-0.013 0 0.094-0.078 0.171-0.173 0.171-0.134 0-0.158-0.125-0.031-0.158zM27.481 14.634c0.049 0.112 0.161 0.297 0.248 0.412 0.157 0.208 0.207 0.446 0.108 0.507-0.088 0.054-0.19-0.079-0.19-0.246 0-0.089-0.020-0.161-0.044-0.161-0.058 0-0.275-0.454-0.319-0.666-0.029-0.143-0.024-0.158 0.037-0.108 0.039 0.032 0.111 0.15 0.161 0.261zM25.833 14.769c0.099 0.168 0.18 0.343 0.18 0.388s0.038 0.102 0.085 0.127c0.090 0.048 0.252 0.438 0.251 0.607-0 0.055 0.044 0.156 0.098 0.224s0.122 0.194 0.152 0.281 0.107 0.237 0.172 0.335c0.065 0.098 0.107 0.218 0.094 0.268s-0.004 0.213 0.020 0.365c0.024 0.151 0.032 0.286 0.019 0.299s-0.067-0.070-0.118-0.185c-0.052-0.115-0.147-0.258-0.212-0.317s-0.132-0.188-0.15-0.286c-0.017-0.098-0.093-0.297-0.167-0.441s-0.149-0.366-0.165-0.493-0.073-0.285-0.126-0.352c-0.053-0.067-0.096-0.149-0.096-0.183s-0.094-0.263-0.209-0.51c-0.196-0.418-0.203-0.447-0.108-0.441 0.070 0.005 0.156 0.1 0.282 0.313zM1.919 14.814c0.016-0.026 0.050-0.048 0.075-0.048s0.045 0.021 0.045 0.048c0 0.026-0.034 0.048-0.075 0.048s-0.062-0.021-0.045-0.048zM1.943 15.219c0-0.039 0.022-0.072 0.048-0.072s0.048 0.032 0.048 0.072c0 0.039-0.022 0.071-0.048 0.071s-0.048-0.032-0.048-0.071zM1.279 15.687c0.059-0.063 0.161-0.11 0.234-0.11 0.158 0 0.44 0.112 0.519 0.206 0.031 0.038 0.12 0.081 0.196 0.096 0.139 0.027 0.231 0.173 0.171 0.27-0.016 0.026-0.121 0.048-0.232 0.048-0.174 0-0.21-0.018-0.26-0.131-0.055-0.122-0.175-0.198-0.429-0.272-0.087-0.025-0.1-0.014-0.078 0.067 0.014 0.055 0.002 0.097-0.028 0.097s-0.054-0.024-0.054-0.053c0-0.037-0.022-0.035-0.072 0.006-0.119 0.098-0.091-0.093 0.032-0.223zM2.503 15.799c0.055-0.055 0.112-0.035 0.112 0.040 0 0.039-0.032 0.071-0.072 0.071-0.075 0-0.095-0.056-0.040-0.111zM2.592 16.2c-0.029-0.13-0.027-0.131 0.213-0.127 0.205 0.004 0.265 0.028 0.398 0.159 0.123 0.122 0.138 0.154 0.070 0.154-0.047 0-0.175 0.043-0.284 0.095-0.136 0.065-0.209 0.079-0.231 0.043-0.018-0.029-0.106-0.045-0.195-0.036-0.12 0.012-0.163-0.003-0.163-0.055 0-0.039 0.050-0.078 0.111-0.087 0.094-0.013 0.107-0.036 0.082-0.147zM3.504 16.34c0.019-0.030 0.066-0.043 0.105-0.028s0.091 0.027 0.115 0.027c0.085 0 0.043 0.089-0.057 0.121-0.115 0.036-0.215-0.037-0.164-0.12zM1.895 16.53c0-0.063 0.032-0.095 0.093-0.095 0.12 0 0.179 0.094 0.093 0.148-0.111 0.070-0.186 0.048-0.186-0.052zM0.358 17.342c0.035 0.128 0.092 0.211 0.17 0.246 0.065 0.029 0.118 0.071 0.118 0.093s0.032 0.040 0.071 0.040c0.088 0 0.265 0.334 0.265 0.499 0 0.069 0.027 0.121 0.064 0.121 0.035 0 0.089 0.054 0.12 0.121s0.093 0.135 0.14 0.152c0.046 0.017 0.113 0.070 0.147 0.118 0.091 0.125 0.201 0.109 0.201-0.030 0-0.064 0.022-0.13 0.048-0.146s0.048 0.019 0.048 0.081c0 0.061 0.031 0.169 0.069 0.24 0.099 0.188 0.108 0.657 0.016 0.801-0.041 0.065-0.089 0.166-0.107 0.225s-0.052 0.107-0.077 0.107c-0.074 0-0.055 0.746 0.021 0.822 0.056 0.056 0.056 0.079 0 0.156-0.097 0.131-0.081 0.322 0.042 0.507 0.181 0.272 0.308 0.53 0.397 0.805 0.047 0.144 0.125 0.342 0.174 0.439s0.090 0.216 0.090 0.265c0 0.119 0.429 0.553 0.732 0.741 0.267 0.166 0.348 0.424 0.473 1.51 0.053 0.459 0.127 0.94 0.166 1.069 0.075 0.25 0.086 0.519 0.029 0.664-0.030 0.075-0.066 0.051-0.253-0.167-1.642-1.918-2.711-4.276-3.143-6.938-0.075-0.463-0.159-2.733-0.101-2.733 0.016 0 0.052 0.087 0.081 0.193zM27.957 17.725c0.039-0.063 0.122-0.067 0.122-0.006 0 0.056-0.094 0.116-0.128 0.082-0.014-0.014-0.011-0.048 0.006-0.076zM4.441 18.151c0-0.064 0.032-0.095 0.096-0.095 0.109 0 0.123 0.049 0.038 0.134s-0.135 0.070-0.135-0.038zM2.808 18.389c0 0.052-0.008 0.095-0.018 0.095s-0.030-0.043-0.044-0.095c-0.014-0.052-0.006-0.095 0.018-0.095s0.044 0.043 0.044 0.095zM6.987 21.106c0-0.020-0.054-0.046-0.12-0.058s-0.12-0.007-0.12 0.013c0 0.020 0.054 0.046 0.12 0.058s0.12 0.007 0.12-0.013z"></path>
<path stroke-linejoin="round" stroke-linecap="round" stroke-miterlimit="4" stroke-width="0.3871" d="M20.903 3.097c0 1.806-2.323 3.355-2.323 3.355s-2.323-1.548-2.323-3.355c0-0.616 0.245-1.207 0.68-1.642s1.026-0.68 1.642-0.68c0.616 0 1.207 0.245 1.642 0.68s0.68 1.026 0.68 1.642z"></path>
<path stroke-linejoin="round" stroke-linecap="round" stroke-miterlimit="4" stroke-width="0.3871" d="M18.581 3.871c0.428 0 0.774-0.347 0.774-0.774s-0.347-0.774-0.774-0.774c-0.428 0-0.774 0.347-0.774 0.774s0.347 0.774 0.774 0.774z"></path>
</symbol>
<symbol id="icon-heart" viewBox="0 0 31 32">
<path d="M15.488 24.384l-0.128 0.128-0.141-0.128c-6.080-5.517-10.099-9.165-10.099-12.864 0-2.56 1.92-4.48 4.48-4.48 1.971 0 3.891 1.28 4.57 3.021h2.381c0.678-1.741 2.598-3.021 4.57-3.021 2.56 0 4.48 1.92 4.48 4.48 0 3.699-4.019 7.347-10.112 12.864zM21.12 4.48c-2.227 0-4.365 1.037-5.76 2.662-1.395-1.626-3.533-2.662-5.76-2.662-3.942 0-7.040 3.085-7.040 7.040 0 4.826 4.352 8.781 10.944 14.758l1.856 1.69 1.856-1.69c6.592-5.978 10.944-9.933 10.944-14.758 0-3.955-3.098-7.040-7.040-7.040z"></path>
</symbol>
<symbol id="icon-star" viewBox="0 0 34 32">
<path stroke-linejoin="miter" stroke-linecap="butt" stroke-miterlimit="4" stroke-width="2.4615" d="M17.231 2.538l4.231 7.631c0.247 0.445 0.678 0.759 1.178 0.856l8.565 1.666-5.95 6.382c-0.347 0.372-0.512 0.879-0.45 1.385l1.062 8.66-7.908-3.687c-0.462-0.215-0.995-0.215-1.456 0l-7.908 3.687 1.062-8.66c0.062-0.505-0.103-1.012-0.45-1.385l-5.95-6.382 8.565-1.666c0.5-0.097 0.931-0.411 1.178-0.856l4.231-7.631z"></path>
</symbol>
<symbol id="icon-twitter" viewBox="0 0 32 32">
<path stroke-linejoin="round" stroke-linecap="round" stroke-miterlimit="4" stroke-width="2.6667" d="M30.667 4c-1.277 0.901-2.691 1.589-4.187 2.040-0.803-0.923-1.87-1.578-3.057-1.875s-2.437-0.222-3.58 0.214c-1.143 0.436-2.125 1.213-2.812 2.226s-1.047 2.212-1.031 3.435v1.333c-2.343 0.061-4.665-0.459-6.759-1.513s-3.894-2.609-5.241-4.527c0 0-5.333 12 6.667 17.333-2.746 1.864-6.017 2.799-9.333 2.667 12 6.667 26.667 0 26.667-15.333-0.001-0.371-0.037-0.742-0.107-1.107 1.361-1.342 2.321-3.036 2.773-4.893z"></path>
</symbol>
<symbol id="icon-user" viewBox="0 0 31 32">
<path stroke-linejoin="round" stroke-linecap="round" stroke-miterlimit="4" stroke-width="2.56" d="M25.6 27.52v-2.56c0-1.358-0.539-2.66-1.5-3.62s-2.262-1.5-3.62-1.5h-10.24c-1.358 0-2.66 0.539-3.62 1.5s-1.5 2.262-1.5 3.62v2.56"></path>
<path stroke-linejoin="round" stroke-linecap="round" stroke-miterlimit="4" stroke-width="2.56" d="M15.36 14.72c2.828 0 5.12-2.292 5.12-5.12s-2.292-5.12-5.12-5.12c-2.828 0-5.12 2.292-5.12 5.12s2.292 5.12 5.12 5.12z"></path>
</symbol>
<symbol id="icon-youtube" viewBox="0 0 32 32">
<path stroke-linejoin="round" stroke-linecap="round" stroke-miterlimit="4" stroke-width="2.6667" d="M30.053 8.56c-0.158-0.633-0.481-1.213-0.935-1.681s-1.024-0.808-1.651-0.986c-2.293-0.56-11.467-0.56-11.467-0.56s-9.173 0-11.467 0.613c-0.628 0.178-1.197 0.518-1.652 0.986s-0.777 1.048-0.935 1.681c-0.42 2.327-0.625 4.688-0.613 7.053-0.015 2.383 0.19 4.762 0.613 7.107 0.175 0.613 0.504 1.171 0.958 1.619s1.014 0.772 1.629 0.941c2.293 0.613 11.467 0.613 11.467 0.613s9.173 0 11.467-0.613c0.628-0.178 1.197-0.518 1.651-0.986s0.777-1.048 0.935-1.681c0.416-2.31 0.622-4.653 0.613-7 0.015-2.383-0.19-4.762-0.613-7.107z"></path>
<path stroke-linejoin="round" stroke-linecap="round" stroke-miterlimit="4" stroke-width="2.6667" d="M13 20.027l7.667-4.36-7.667-4.36v8.72z"></path>
</symbol>
<symbol id="icon-menu" >
<path d="M0 0H40V3.75H0V0Z" fill="#266294"/>
<path d="M10 13.125H30V16.875H10V13.125Z" fill="#266294"/>
<path d="M0 26.25H40V30H0V26.25Z" fill="#266294"/>
</symbol>
</defs>
</svg>
